<svg width="12" height="12" viewBox="0 0 12 12" fill="none" xmlns="http://www.w3.org/2000/svg">
<path d="M6 12C2.68629 12 0 9.31371 0 6C0 2.68629 2.68629 0 6 0C9.31371 0 12 2.68629 12 6C12 9.31371 9.31371 12 6 12Z" fill="#919191"/>
<path d="M3.32472 4.64326C3.32472 4.32976 3.43122 4.01176 3.64422 3.69001C3.85797 3.36751 4.16922 3.10126 4.57947 2.88976C4.98897 2.67826 5.46597 2.57251 6.01197 2.57251C6.51972 2.57251 6.96747 2.66101 7.35672 2.83801C7.74522 3.01426 8.04522 3.25501 8.25672 3.55801C8.46822 3.86251 8.57397 4.19251 8.57397 4.54951C8.57397 4.83001 8.51397 5.07601 8.39322 5.28751C8.27871 5.49105 8.1335 5.67571 7.96272 5.83501C7.79622 5.98801 7.49772 6.24676 7.06722 6.60976C6.96706 6.69441 6.87166 6.78455 6.78147 6.87976C6.71953 6.94398 6.66563 7.01551 6.62097 7.09276C6.33222 7.76026 5.07747 7.68526 5.31972 6.75151C5.40972 6.54826 5.53122 6.36976 5.68122 6.21601C5.83197 6.06301 6.03522 5.88001 6.29022 5.66851C6.51522 5.48401 6.67647 5.34451 6.77622 5.25001C6.87466 5.15742 6.9595 5.05137 7.02822 4.93501C7.09573 4.82135 7.13099 4.69145 7.13022 4.55926C7.13022 4.29526 7.02672 4.07176 6.81822 3.89026C6.60972 3.70876 6.34122 3.61801 6.01197 3.61801C5.62722 3.61801 5.34447 3.70951 5.16147 3.89326C4.97997 4.07626 4.82547 4.34626 4.69947 4.70326C4.58097 5.07601 4.35447 5.26276 4.02222 5.26276C3.83735 5.26697 3.6586 5.19639 3.52647 5.06701C3.39147 4.93651 3.32397 4.79551 3.32397 4.64326H3.32472Z" fill="white"/>
<path d="M6 9.75C5.58579 9.75 5.25 9.41421 5.25 9C5.25 8.58579 5.58579 8.25 6 8.25C6.41421 8.25 6.75 8.58579 6.75 9C6.75 9.41421 6.41421 9.75 6 9.75Z" fill="white"/>
</svg>